<svg t="1753746431653" class="icon" viewBox="0 0 1024 1024" version="1.1" xmlns="http://www.w3.org/2000/svg" p-id="6463" width="200" height="200"><path d="M682.666667 469.333333c70.613333 0 127.573333-57.386667 127.573333-128s-56.96-128-127.573333-128c-70.613333 0-128 57.386667-128 128s57.386667 128 128 128zM341.333333 469.333333c70.613333 0 127.573333-57.386667 127.573333-128s-56.96-128-127.573333-128c-70.613333 0-128 57.386667-128 128s57.386667 128 128 128zM341.333333 554.666667c-99.626667 0-298.666667 49.92-298.666667 149.333333l0 106.666667 597.333333 0 0-106.666667c0-99.413333-199.04-149.333333-298.666667-149.333333zM682.666667 554.666667c-12.373333 0-26.24 0.853333-41.173333 2.346667 49.493333 35.626667 83.84 83.626667 83.84 146.986667l0 106.666667 256 0 0-106.666667c0-99.413333-199.04-149.333333-298.666667-149.333333z" fill="#444444" p-id="6464"></path></svg>